<svg width="29" height="29" viewBox="0 0 29 29" fill="none" xmlns="http://www.w3.org/2000/svg">
<path fill-rule="evenodd" clip-rule="evenodd" d="M24.8652 8.82122C24.7642 8.79282 24.6632 8.76442 24.5622 8.74548L22.1884 8.32891C21.1176 8.13955 20.057 7.80818 19.0772 7.35374L17.1175 6.43537C17.0165 6.38803 16.9256 6.35016 16.8246 6.32176C16.0569 6.08507 15.2488 6.25549 14.673 6.7194C14.9861 6.87089 15.2387 7.11704 15.4003 7.42001C15.7033 7.20225 16.1074 7.12651 16.4912 7.24959C16.5022 7.25369 16.5136 7.2578 16.5253 7.262L16.5253 7.26202C16.5676 7.27719 16.6133 7.29363 16.6529 7.31587L18.6125 8.23423C19.6832 8.73602 20.8348 9.09579 21.9964 9.29461L24.3703 9.71118L24.392 9.71519C24.4375 9.72349 24.4884 9.73277 24.5319 9.74905C25.1582 9.93841 25.4915 10.5727 25.2794 11.1597L23.4712 16.2533C22.6025 18.7149 20.6631 20.741 18.1478 21.8109L16.1781 22.6535C15.9559 22.7482 15.7134 22.7576 15.4912 22.6914C15.2589 22.6156 15.0669 22.4736 14.9558 22.2653L14.875 22.1233L14.6932 22.3979C14.5518 22.6156 14.3498 22.7766 14.1275 22.8902C14.37 23.231 14.7336 23.4866 15.1579 23.6192C15.6326 23.7707 16.1579 23.7423 16.6124 23.5434L18.5822 22.7008C21.3601 21.5174 23.5116 19.2735 24.4713 16.5563L26.2794 11.4627C26.6633 10.3739 26.037 9.181 24.8652 8.82122ZM10.1078 7.75115L12.32 6.86119C13.2695 6.47302 14.3504 6.9748 14.6332 7.9121L16.1484 13.0909C16.9161 15.7324 16.4817 18.5538 14.9463 20.8733L13.815 22.587C13.4109 23.2118 12.5523 23.4201 11.8654 23.0793L9.83507 22.0757C7.27944 20.7976 5.37029 18.5916 4.60259 15.9786L3.1177 10.8849C2.84496 9.93818 3.55205 8.98195 4.59249 8.85887L6.80467 8.59377C7.94612 8.45176 9.05727 8.17719 10.1078 7.75115ZM8.29967 13.2235C7.56227 12.8258 6.82488 13.0152 6.31981 13.4412C5.4612 14.2554 6.2592 15.3726 7.31984 15.2401C7.64079 15.2352 7.91929 15.0837 8.19341 14.9345L8.19342 14.9345C8.45421 14.7926 8.71103 14.6528 8.99666 14.6436C9.20879 14.5963 9.3401 14.388 9.2795 14.1892C9.20141 13.6687 8.81037 13.4766 8.46475 13.3067C8.40797 13.2788 8.35241 13.2515 8.29967 13.2235ZM8.21886 18.6295H8.20876C10.5725 20.4662 13.9766 19.936 14.6837 16.9727C12.8251 18.0898 10.522 19.0555 8.21886 18.6295ZM12.693 13.793C13.0104 13.7894 13.333 13.7858 13.613 13.64C14.5928 13.2329 14.6736 11.8885 13.4816 11.6045C12.8251 11.4719 12.0877 11.6613 11.6634 12.3619C11.6337 12.4109 11.6013 12.4607 11.5681 12.5116C11.3642 12.8242 11.1331 13.1786 11.3503 13.659C11.4109 13.8578 11.6331 13.9809 11.8452 13.9241C12.096 13.7997 12.3922 13.7963 12.693 13.793ZM20.4899 13.5424C20.1337 13.6967 19.7274 13.8728 19.6227 14.3881C19.6086 14.4278 19.6021 14.4678 19.6024 14.507C19.6012 14.6613 19.7118 14.8078 19.8752 14.8615C20.1603 14.8891 20.4095 15.04 20.6623 15.1931C20.9292 15.3547 21.2002 15.5188 21.5218 15.5431C22.3377 15.6815 23.0341 15.0747 22.9395 14.3994C22.9136 14.1939 22.8145 13.9818 22.6228 13.7822C22.1379 13.3372 21.4208 13.11 20.653 13.4698C20.6008 13.4943 20.546 13.518 20.4899 13.5424ZM17.4394 12.606C17.6249 12.9251 17.8336 13.2838 17.5917 13.7534C17.5412 13.8859 17.42 13.9806 17.2786 14.009C17.218 13.6397 17.1271 13.2705 17.0261 12.9107L16.7028 11.7841C16.9554 11.9261 17.1877 12.1344 17.3493 12.4468C17.3771 12.499 17.4079 12.5519 17.4393 12.6059L17.4394 12.606ZM17.0879 17.872C18.3607 18.156 19.2395 18.9419 19.6839 19.7561H19.6637C18.9061 19.046 17.9465 18.6199 16.9364 18.3738C16.997 18.2128 17.0475 18.0424 17.0879 17.872Z" fill="#E50012"/>
</svg>
